<?xml version="1.0" encoding="iso-8859-1"?>
<!-- Generator: Adobe Illustrator 16.0.0, SVG Export Plug-In . SVG Version: 6.00 Build 0)  -->
<!DOCTYPE svg PUBLIC "-//W3C//DTD SVG 1.1//EN" "http://www.w3.org/Graphics/SVG/1.1/DTD/svg11.dtd">
<svg version="1.1" xmlns="http://www.w3.org/2000/svg" xmlns:xlink="http://www.w3.org/1999/xlink" x="0px" y="0px" width="15px"
	 height="15px" viewBox="0 0 15 15" style="enable-background:new 0 0 15 15;" xml:space="preserve">
<g id="next-pg">
	<g id="up_7_">
		<g>
			<path style="fill:#8998AF;" d="M14.706,6.797c0,0-7.103-6.581-7.13-6.601C7.413,0.076,7.217,0,7,0C6.447,0,6,0.447,6,1v3
				c0,0.276-0.224,0.5-0.5,0.5H1c-0.553,0-1,0.447-1,1v4c0,0.553,0.447,1,1,1h4.5C5.776,10.5,6,10.724,6,11v2.999
				c0,0.553,0.447,1,1,1c0.217,0,0.413-0.076,0.576-0.196c0.027-0.02,7.13-6.601,7.13-6.601C15.098,7.816,15.098,7.184,14.706,6.797
				z"/>
		</g>
	</g>
</g>
<g id="Layer_1">
</g>
</svg>
