<?xml version="1.0" encoding="iso-8859-1"?>
<!-- Generator: Adobe Illustrator 16.0.0, SVG Export Plug-In . SVG Version: 6.00 Build 0)  -->
<!DOCTYPE svg PUBLIC "-//W3C//DTD SVG 1.1//EN" "http://www.w3.org/Graphics/SVG/1.1/DTD/svg11.dtd">
<svg version="1.1" xmlns="http://www.w3.org/2000/svg" xmlns:xlink="http://www.w3.org/1999/xlink" x="0px" y="0px" width="15px"
	 height="15px" viewBox="0 0 15 15" style="enable-background:new 0 0 15 15;" xml:space="preserve">
<g id="previous-pg">
	<g id="up_5_">
		<g>
			<path style="fill:#8998AF;" d="M14,4.499H9.5c-0.276,0-0.5-0.224-0.5-0.5V1c0-0.553-0.447-1-1-1C7.783,0,7.587,0.076,7.424,0.196
				c-0.027,0.02-7.13,6.6-7.13,6.6c-0.392,0.387-0.392,1.019,0,1.406c0,0,7.103,6.581,7.13,6.601
				c0.163,0.12,0.359,0.196,0.576,0.196c0.553,0,1-0.447,1-1v-3c0-0.276,0.224-0.5,0.5-0.5H14c0.553,0,1-0.447,1-1v-4
				C15,4.946,14.553,4.499,14,4.499z"/>
		</g>
	</g>
</g>
<g id="Layer_1">
</g>
</svg>
