<?xml version="1.0" encoding="iso-8859-1"?>
<!-- Generator: Adobe Illustrator 16.0.0, SVG Export Plug-In . SVG Version: 6.00 Build 0)  -->
<!DOCTYPE svg PUBLIC "-//W3C//DTD SVG 1.1//EN" "http://www.w3.org/Graphics/SVG/1.1/DTD/svg11.dtd">
<svg version="1.1" xmlns="http://www.w3.org/2000/svg" xmlns:xlink="http://www.w3.org/1999/xlink" x="0px" y="0px" width="15px"
	 height="15px" viewBox="0 0 15 15" style="enable-background:new 0 0 15 15;" xml:space="preserve">
<g id="load_from">
	<g id="sent_folder">
		<g>
			<path style="fill:#8998AF;" d="M11.813,7.71c0,0-0.15-0.272-0.657-0.272c-0.514,0-0.93,0.416-0.93,0.93
				c0,0.257,0.104,0.489,0.272,0.657l1.202,1.202H6.508c-0.514,0-0.93,0.416-0.93,0.93s0.417,0.93,0.93,0.93h5.193l-1.202,1.202
				c-0.169,0.168-0.272,0.4-0.272,0.657c0,0.514,0.416,0.93,0.93,0.93c0.256,0,0.488-0.104,0.657-0.272l2.789-2.789
				c0,0,0.272-0.149,0.272-0.657c0-0.257-0.105-0.489-0.272-0.657L11.813,7.71z M14.07,1.859H6.893L5.306,0.272
				C5.138,0.104,4.905,0,4.648,0H0.93C0.416,0,0,0.416,0,0.93V14.07C0,14.584,0.416,15,0.93,15h4.648c0.514,0,0.93-0.416,0.93-0.93
				s-0.416-0.93-0.93-0.93H1.859V1.859h2.404l1.587,1.587c0,0,0.149,0.272,0.658,0.272h6.632v2.789c0,0.514,0.416,0.93,0.93,0.93
				S15,7.021,15,6.508V2.789C15,2.275,14.584,1.859,14.07,1.859z"/>
		</g>
	</g>
</g>
<g id="Layer_1">
</g>
</svg>
