<?xml version="1.0" encoding="iso-8859-1"?>
<!-- Generator: Adobe Illustrator 16.0.0, SVG Export Plug-In . SVG Version: 6.00 Build 0)  -->
<!DOCTYPE svg PUBLIC "-//W3C//DTD SVG 1.1//EN" "http://www.w3.org/Graphics/SVG/1.1/DTD/svg11.dtd">
<svg version="1.1" xmlns="http://www.w3.org/2000/svg" xmlns:xlink="http://www.w3.org/1999/xlink" x="0px" y="0px" width="15px"
	 height="15px" viewBox="0 0 15 15" style="enable-background:new 0 0 15 15;" xml:space="preserve">
<g id="open_url">
	<path style="fill:#8998AF;" d="M14.066,1.867H6.953L5.359,0.273C5.191,0.105,4.958,0,4.699,0H0.965
		C0.449,0,0.031,0.417,0.031,0.934v13.133C0.031,14.583,0.449,15,0.965,15h13.102C14.583,15,15,14.582,15,14.066V2.801
		C15,2.285,14.583,1.867,14.066,1.867z M5.095,10.609c0,0.752-0.4,1.151-1.151,1.151H3.048c-0.751,0-1.151-0.399-1.151-1.151V5.524
		c0-0.088,0.072-0.16,0.16-0.16h0.768c0.088,0,0.16,0.072,0.16,0.16v4.861c0,0.216,0.112,0.319,0.32,0.319H3.72
		c0.208,0,0.32-0.104,0.32-0.319V5.524c0-0.088,0.072-0.16,0.16-0.16h0.735c0.088,0,0.16,0.072,0.16,0.16V10.609z M9.184,8.467
		c0,0.535-0.2,0.888-0.584,1.056l0.551,2.095c0.024,0.096-0.023,0.144-0.111,0.144H8.207c-0.08,0-0.119-0.04-0.135-0.112
		l-0.536-2.03H6.984v2.015c0,0.08-0.048,0.128-0.128,0.128H6.025c-0.08,0-0.128-0.048-0.128-0.128V5.492
		c0-0.08,0.048-0.128,0.128-0.128h2.006c0.752,0,1.152,0.399,1.152,1.151V8.467z M13.103,11.633c0,0.088-0.039,0.128-0.127,0.128
		h-2.863c-0.08,0-0.128-0.04-0.128-0.128V5.492c0-0.08,0.048-0.128,0.128-0.128h0.832c0.088,0,0.128,0.048,0.128,0.128v5.213h1.903
		c0.088,0,0.127,0.048,0.127,0.128V11.633z M7.776,6.42H6.984v2.143h0.792c0.208,0,0.32-0.112,0.32-0.319V6.739
		C8.096,6.531,7.984,6.42,7.776,6.42z"/>
</g>
<g id="Layer_1">
</g>
</svg>
