<?xml version="1.0" encoding="iso-8859-1"?>
<!-- Generator: Adobe Illustrator 16.0.0, SVG Export Plug-In . SVG Version: 6.00 Build 0)  -->
<!DOCTYPE svg PUBLIC "-//W3C//DTD SVG 1.1//EN" "http://www.w3.org/Graphics/SVG/1.1/DTD/svg11.dtd">
<svg version="1.1" xmlns="http://www.w3.org/2000/svg" xmlns:xlink="http://www.w3.org/1999/xlink" x="0px" y="0px" width="15px"
	 height="15px" viewBox="0 0 15 15" style="enable-background:new 0 0 15 15;" xml:space="preserve">
<g id="Layer_16">
	<path style="fill:#8998AF;" d="M5.625,2.992 M5.625,2.215c0-0.429-0.348-0.777-0.777-0.777H1c-0.552,0-1,0.448-1,1v10.125
		c0,0.553,0.448,1,1,1h3.848c0.429,0,0.777-0.348,0.777-0.777s-0.348-0.777-0.777-0.777H2.055c-0.276,0-0.5-0.224-0.5-0.5V3.492
		c0-0.276,0.224-0.5,0.5-0.5h2.793C5.277,2.992,5.625,2.644,5.625,2.215z"/>
	<path style="fill:#8998AF;" d="M13.913,1.124L7.774,0.016C7.211-0.085,6.688,0.302,6.688,0.82v13.36
		c0,0.518,0.524,0.905,1.087,0.804l6.139-1.107C14.544,13.762,15,13.26,15,12.68V2.32C15,1.739,14.544,1.238,13.913,1.124z
		 M8.853,8.667c-0.336,0-0.606-0.522-0.606-1.167s0.271-1.167,0.606-1.167c0.335,0,0.606,0.522,0.606,1.167S9.188,8.667,8.853,8.667
		z"/>
</g>
<g id="Layer_1">
</g>
</svg>
