<?xml version="1.0" encoding="iso-8859-1"?>
<!-- Generator: Adobe Illustrator 16.0.0, SVG Export Plug-In . SVG Version: 6.00 Build 0)  -->
<!DOCTYPE svg PUBLIC "-//W3C//DTD SVG 1.1//EN" "http://www.w3.org/Graphics/SVG/1.1/DTD/svg11.dtd">
<svg version="1.1" xmlns="http://www.w3.org/2000/svg" xmlns:xlink="http://www.w3.org/1999/xlink" x="0px" y="0px" width="15px"
	 height="15px" viewBox="0 0 15 15" style="enable-background:new 0 0 15 15;" xml:space="preserve">
<g id="save">
	<g id="floppy_disk">
		<g>
			<path style="fill:#8998AF;" d="M14.741,4.029l-3.754-3.754C10.816,0.105,10.581,0,10.323,0H0.938C0.419,0,0,0.419,0,0.938v13.139
				c0,0.519,0.419,0.938,0.938,0.938h13.139c0.519,0,0.938-0.42,0.938-0.938V4.692C15.016,4.433,14.909,4.199,14.741,4.029z
				 M6.569,1.877h1.877v1.877H6.569V1.877z M9.385,13.139H5.631v-2.815h3.754V13.139z M13.139,13.139h-1.877V9.385
				c0-0.519-0.42-0.938-0.938-0.938H4.692c-0.519,0-0.938,0.42-0.938,0.938v3.754H1.877V1.877h2.815v2.815
				c0,0.519,0.419,0.938,0.938,0.938h3.754c0.519,0,0.938-0.419,0.938-0.938V2.266l2.815,2.815V13.139z"/>
		</g>
	</g>
</g>
<g id="Layer_1">
</g>
</svg>
