<?xml version="1.0" encoding="iso-8859-1"?>
<!-- Generator: Adobe Illustrator 16.0.0, SVG Export Plug-In . SVG Version: 6.00 Build 0)  -->
<!DOCTYPE svg PUBLIC "-//W3C//DTD SVG 1.1//EN" "http://www.w3.org/Graphics/SVG/1.1/DTD/svg11.dtd">
<svg version="1.1" xmlns="http://www.w3.org/2000/svg" xmlns:xlink="http://www.w3.org/1999/xlink" x="0px" y="0px" width="14.99px"
	 height="14.978px" viewBox="0 0 14.99 14.978" style="enable-background:new 0 0 14.99 14.978;" xml:space="preserve">
<g id="rotate-thumb">
	<g id="roundabout">
		<g>
			<path style="fill-rule:evenodd;clip-rule:evenodd;fill:#8998AF;" d="M14.866,6.8c-0.129-0.231-0.334-0.387-0.563-0.451
				L11.768,5.64c-0.229-0.064-0.482-0.037-0.704,0.097c-0.223,0.134-0.37,0.349-0.432,0.588L9.954,8.968
				c-0.063,0.239-0.038,0.503,0.091,0.734c0.256,0.464,0.823,0.623,1.268,0.355c0.166-0.101,0.273-0.253,0.353-0.417
				c0.066,1.402-0.59,1.855-1.836,2.607c-0.443,0.266-0.595,0.858-0.34,1.321c0.258,0.463,0.824,0.62,1.268,0.354
				c2.313-1.393,3.298-3.313,2.517-5.859l0.549,0.154c0.23,0.064,0.482,0.037,0.705-0.096C14.97,7.855,15.122,7.262,14.866,6.8z
				 M4.952,10.578c-0.059-0.232-0.2-0.438-0.41-0.566c-0.419-0.258-0.956-0.105-1.197,0.34c-0.089,0.167-0.112,0.349-0.099,0.525
				C2.401,10.17,1.526,8.221,1.748,7c0.091-0.499,0.099-1.015-0.321-1.272C1.008,5.47,0.472,5.624,0.23,6.069
				c-0.804,2.015,0.616,5.198,2.413,6.929l-0.52,0.147c-0.218,0.062-0.412,0.212-0.533,0.434c-0.244,0.446-0.099,1.015,0.32,1.274
				c0.21,0.128,0.448,0.153,0.667,0.093l2.395-0.683c0.218-0.063,0.411-0.211,0.533-0.435c0.121-0.223,0.146-0.476,0.088-0.706
				L4.952,10.578z M9.853,2.682c0.445,0.242,1.014,0.099,1.272-0.322c0.256-0.419,0.104-0.956-0.343-1.197
				C8.174-0.823,5.101-0.013,3.854,1.702l-0.148-0.52c-0.06-0.217-0.21-0.412-0.434-0.533C2.826,0.406,2.257,0.55,1.999,0.97
				C1.871,1.18,1.845,1.418,1.906,1.635l0.683,2.396c0.061,0.217,0.21,0.412,0.434,0.533c0.223,0.122,0.476,0.146,0.707,0.088
				L6.274,4.01c0.23-0.059,0.438-0.2,0.565-0.409C7.098,3.182,6.944,2.646,6.5,2.402C6.333,2.313,6.151,2.292,5.974,2.304
				C7.111,1.613,8.601,2.001,9.853,2.682z"/>
		</g>
	</g>
</g>
<g id="Layer_1">
</g>
</svg>
