<?xml version="1.0" encoding="iso-8859-1"?>
<!-- Generator: Adobe Illustrator 16.0.0, SVG Export Plug-In . SVG Version: 6.00 Build 0)  -->
<!DOCTYPE svg PUBLIC "-//W3C//DTD SVG 1.1//EN" "http://www.w3.org/Graphics/SVG/1.1/DTD/svg11.dtd">
<svg version="1.1" xmlns="http://www.w3.org/2000/svg" xmlns:xlink="http://www.w3.org/1999/xlink" x="0px" y="0px" width="15px"
	 height="15px" viewBox="0 0 15 15" style="enable-background:new 0 0 15 15;" xml:space="preserve">
<g id="close">
	<path style="fill:#8998AF;" d="M9.443,7.5l5.152-5.151c0.258-0.261,0.4-0.606,0.4-0.97c0-0.758-0.617-1.375-1.375-1.375
		c-0.368,0-0.714,0.144-0.972,0.403L7.5,5.557L2.352,0.408c-0.259-0.26-0.604-0.404-0.973-0.404c-0.758,0-1.375,0.617-1.375,1.375
		c0,0.365,0.143,0.71,0.403,0.972L5.557,7.5l-5.148,5.148c-0.26,0.259-0.404,0.604-0.404,0.973c0,0.758,0.617,1.375,1.375,1.375
		c0.364,0,0.708-0.143,0.972-0.402L7.5,9.443l5.151,5.152c0.262,0.258,0.605,0.4,0.97,0.4c0.758,0,1.375-0.617,1.375-1.375
		c0-0.367-0.143-0.712-0.402-0.972L9.443,7.5z"/>
</g>
<g id="Layer_1">
</g>
</svg>
