<?xml version="1.0" encoding="iso-8859-1"?>
<!-- Generator: Adobe Illustrator 16.0.0, SVG Export Plug-In . SVG Version: 6.00 Build 0)  -->
<!DOCTYPE svg PUBLIC "-//W3C//DTD SVG 1.1//EN" "http://www.w3.org/Graphics/SVG/1.1/DTD/svg11.dtd">
<svg version="1.1" xmlns="http://www.w3.org/2000/svg" xmlns:xlink="http://www.w3.org/1999/xlink" x="0px" y="0px" width="15px"
	 height="15px" viewBox="0 0 15 15" style="enable-background:new 0 0 15 15;" xml:space="preserve">
<g id="single">
	<g>
		<g>
			<g>
				<path style="fill:#8998AF;" d="M8.222,4.94c0,0.134-0.106,0.244-0.237,0.244H3.599c-0.134,0-0.239-0.109-0.239-0.244V3.553
					c0-0.132,0.105-0.238,0.239-0.238h4.385c0.131,0,0.237,0.106,0.237,0.238V4.94z"/>
			</g>
			<g>
				<path style="fill:#8998AF;" d="M11.636,8.156c0,0.135-0.108,0.24-0.241,0.24H3.599c-0.134,0-0.239-0.105-0.239-0.24V6.835
					c0-0.132,0.105-0.24,0.239-0.24h7.795c0.133,0,0.241,0.108,0.241,0.24V8.156z"/>
			</g>
			<g>
				<path style="fill:#8998AF;" d="M11.636,11.436c0,0.134-0.108,0.242-0.241,0.242H3.599c-0.134,0-0.239-0.108-0.239-0.242V10.05
					c0-0.132,0.105-0.239,0.239-0.239h7.795c0.133,0,0.241,0.107,0.241,0.239V11.436z"/>
			</g>
			<path style="fill:#8998AF;" d="M11.227,0.169C11.118,0.059,10.97,0,10.816,0H0.243C0.109,0,0,0.105,0,0.24v14.519
				C0,14.894,0.109,15,0.243,15h14.518C14.893,15,15,14.894,15,14.759V4.182c0-0.153-0.064-0.303-0.17-0.41L11.227,0.169z
				 M1.921,13.198c-0.063,0-0.121-0.053-0.121-0.12V1.919c0-0.065,0.058-0.118,0.121-0.118h7.738c0.067,0,0.121,0.053,0.121,0.118
				V5.04c0,0.132,0.105,0.242,0.24,0.242h3.059c0.063,0,0.12,0.053,0.12,0.118v7.679c0,0.067-0.057,0.12-0.12,0.12H1.921z"/>
		</g>
	</g>
</g>
<g id="Layer_1">
</g>
</svg>
