<?xml version="1.0" encoding="iso-8859-1"?>
<!-- Generator: Adobe Illustrator 16.0.0, SVG Export Plug-In . SVG Version: 6.00 Build 0)  -->
<!DOCTYPE svg PUBLIC "-//W3C//DTD SVG 1.1//EN" "http://www.w3.org/Graphics/SVG/1.1/DTD/svg11.dtd">
<svg version="1.1" xmlns="http://www.w3.org/2000/svg" xmlns:xlink="http://www.w3.org/1999/xlink" x="0px" y="0px" width="15px"
	 height="15px" viewBox="0 0 15 15" style="enable-background:new 0 0 15 15;" xml:space="preserve">
<g id="about">
	<g id="archive_box">
		<g>
			<path style="fill:#8998AF;" d="M14.357,5.648l-1.946-0.662c-0.113-0.039-0.189-0.145-0.189-0.265V0.94
				c0-0.52-0.421-0.94-0.94-0.94H3.761c-0.52,0-0.94,0.42-0.94,0.94v3.781c0,0.119-0.077,0.226-0.19,0.264L0.643,5.648
				c0,0-0.643,0.125-0.643,0.891v5.641c0,0.82,0.756,0.922,0.756,0.922S10.276,15,10.341,15c0.152,0,0.29-0.044,0.418-0.107
				l3.718-1.88C14.783,12.857,15,12.547,15,12.18V6.539C15,5.772,14.357,5.648,14.357,5.648z M9.401,12.713
				c0,0.104-0.095,0.182-0.196,0.161l-7.128-1.427c-0.114-0.022-0.196-0.123-0.196-0.239V7.886c0-0.104,0.095-0.181,0.196-0.161
				l7.128,1.426c0.114,0.022,0.196,0.123,0.196,0.239V12.713z M10.341,7.279c0,0.104-0.095,0.181-0.196,0.16L4.897,6.373
				c-0.114-0.023-0.196-0.124-0.196-0.24V2.081c0-0.111,0.089-0.2,0.2-0.2h5.239c0.11,0,0.2,0.089,0.2,0.2V7.279z M13.119,11.398
				c0,0.123-0.069,0.235-0.178,0.291l-1.482,0.759c-0.081,0.041-0.178-0.018-0.178-0.109V9.201c0-0.123,0.069-0.235,0.178-0.291
				l1.482-0.759c0.081-0.041,0.178,0.018,0.178,0.109V11.398z M8.461,2.82h-1.88c-0.52,0-0.94,0.42-0.94,0.94
				c0,0.52,0.42,0.94,0.94,0.94h1.88c0.52,0,0.94-0.42,0.94-0.94C9.401,3.241,8.98,2.82,8.461,2.82z"/>
		</g>
	</g>
</g>
<g id="Layer_1">
</g>
</svg>
