<?xml version="1.0" encoding="utf-8"?>
<!-- Generator: Adobe Illustrator 16.0.0, SVG Export Plug-In . SVG Version: 6.00 Build 0)  -->
<!DOCTYPE svg PUBLIC "-//W3C//DTD SVG 1.1//EN" "http://www.w3.org/Graphics/SVG/1.1/DTD/svg11.dtd">
<svg version="1.1" id="Layer_1" xmlns="http://www.w3.org/2000/svg" xmlns:xlink="http://www.w3.org/1999/xlink" x="0px" y="0px"
	 width="15px" height="15px" viewBox="0 0 15 15" enable-background="new 0 0 15 15" xml:space="preserve">
<g>
	<path fill="#8998AF" d="M0.533,0.235C0.239,0.235,0,0.472,0,0.765v13.396c0,0.296,0.239,0.534,0.533,0.534h13.896
		c0.292,0,0.532-0.238,0.532-0.534V0.765c0-0.293-0.24-0.53-0.532-0.53H0.533z M1.55,4.489c0-0.146,0.12-0.264,0.266-0.264h11.329
		c0.146,0,0.266,0.118,0.266,0.264v8.389c0,0.146-0.12,0.265-0.266,0.265H1.815c-0.146,0-0.266-0.119-0.266-0.265V4.489z"/>
	<path fill="#8998AF" d="M12.49,6.336c0,0.607-0.494,1.098-1.101,1.098c-0.609,0-1.104-0.491-1.104-1.098
		c0-0.612,0.494-1.1,1.104-1.1C11.996,5.237,12.49,5.725,12.49,6.336z"/>
	<path fill="#8998AF" d="M11.792,11.234l-1.198-1.464l-0.181-0.224L9.032,7.857c-0.183-0.221-0.521-0.221-0.7,0L7.224,9.215
		L6.739,8.618L6.446,8.263L4.229,5.554C4.012,5.287,3.652,5.222,3.366,5.351c-0.17,0.081-0.257,0.262-0.257,0.45v5.608
		c0,0.14,0.113,0.251,0.251,0.251h8.225C11.809,11.66,11.933,11.399,11.792,11.234z"/>
</g>
</svg>
