<?xml version="1.0" encoding="iso-8859-1"?>
<!-- Generator: Adobe Illustrator 16.0.0, SVG Export Plug-In . SVG Version: 6.00 Build 0)  -->
<!DOCTYPE svg PUBLIC "-//W3C//DTD SVG 1.1//EN" "http://www.w3.org/Graphics/SVG/1.1/DTD/svg11.dtd">
<svg version="1.1" id="Layer_1" xmlns="http://www.w3.org/2000/svg" xmlns:xlink="http://www.w3.org/1999/xlink" x="0px" y="0px"
	 width="15px" height="15px" viewBox="0 0 15 15" style="enable-background:new 0 0 15 15;" xml:space="preserve">
<g id="export">
	<path style="fill:#8998AF;" d="M14.689,6.838l-3.936-3.913c-0.35-0.342-0.947-0.341-1.294,0.001
		C9.288,3.099,9.191,3.328,9.191,3.572c0,0.244,0.097,0.473,0.27,0.644l2.378,2.365H6.208C5.691,6.581,5.271,7,5.271,7.516
		s0.42,0.936,0.936,0.936h5.648l-2.395,2.382c-0.174,0.172-0.27,0.4-0.27,0.646c0,0.244,0.096,0.474,0.27,0.646
		c0.173,0.171,0.402,0.265,0.646,0.267c0.242,0,0.473-0.096,0.646-0.268l3.977-3.954C14.904,7.997,15,7.768,15,7.524
		S14.904,7.051,14.689,6.838z"/>
	<g>
		<path style="fill:#8998AF;" d="M6.644,5c0.276,0,0.5-0.224,0.5-0.5V0.938C7.144,0.42,6.726,0,6.206,0H0.938C0.42,0,0,0.42,0,0.938
			v13.14c0,0.52,0.42,0.938,0.938,0.938h5.268c0.52,0,0.938-0.42,0.938-0.938v-3.539c0-0.275-0.224-0.5-0.5-0.5H5.768
			c-0.276,0-0.5,0.225-0.5,0.5v2.102c0,0.276-0.224,0.5-0.5,0.5H2.377c-0.276,0-0.5-0.224-0.5-0.5V2.377c0-0.276,0.224-0.5,0.5-0.5
			h2.391c0.276,0,0.5,0.224,0.5,0.5V4.5c0,0.276,0.224,0.5,0.5,0.5H6.644z"/>
	</g>
</g>
<g id="Layer_1_1_">
</g>
</svg>
