<?xml version="1.0" encoding="utf-8"?>
<!-- Generator: Adobe Illustrator 16.0.0, SVG Export Plug-In . SVG Version: 6.00 Build 0)  -->
<!DOCTYPE svg PUBLIC "-//W3C//DTD SVG 1.1//EN" "http://www.w3.org/Graphics/SVG/1.1/DTD/svg11.dtd">
<svg version="1.1" id="Layer_1" xmlns="http://www.w3.org/2000/svg" xmlns:xlink="http://www.w3.org/1999/xlink" x="0px" y="0px"
	 width="15px" height="15px" viewBox="0 0 15 15" enable-background="new 0 0 15 15" xml:space="preserve">
<g>
	<g>
		<g>
			<g>
				<path fill="#8998AF" d="M7.145,14.643c-3.938,0-7.141-3.203-7.141-7.143c0-3.937,3.202-7.141,7.141-7.141
					c2.132,0,4.137,0.941,5.498,2.584c0.422,0.506,0.351,1.259-0.157,1.679c-0.509,0.42-1.26,0.348-1.682-0.155
					C9.896,3.374,8.563,2.75,7.145,2.744c-2.622,0-4.756,2.132-4.756,4.755s2.134,4.756,4.756,4.756
					c1.676,0,3.199-0.877,4.057-2.281c0.185-0.303,0.516-0.547,0.844-0.408l1.028,0.436c0.32,0.139,0.583,0.453,0.425,0.764
					C12.283,13.139,9.842,14.643,7.145,14.643z"/>
			</g>
		</g>
		<path fill="#8998AF" d="M14.973,6.478c0.056,0.284-0.195,0.539-0.485,0.483l-2.919-0.552L8.654,5.851
			C8.4,5.801,8.307,5.489,8.486,5.307l2.416-2.416l2.411-2.414c0.185-0.183,0.497-0.083,0.544,0.166l0.561,2.922L14.973,6.478z"/>
	</g>
</g>
</svg>
