<?xml version="1.0" encoding="iso-8859-1"?>
<!-- Generator: Adobe Illustrator 16.0.0, SVG Export Plug-In . SVG Version: 6.00 Build 0)  -->
<!DOCTYPE svg PUBLIC "-//W3C//DTD SVG 1.1//EN" "http://www.w3.org/Graphics/SVG/1.1/DTD/svg11.dtd">
<svg version="1.1" xmlns="http://www.w3.org/2000/svg" xmlns:xlink="http://www.w3.org/1999/xlink" x="0px" y="0px" width="15px"
	 height="15px" viewBox="0 0 15 15" style="enable-background:new 0 0 15 15;" xml:space="preserve">
<g id="settings">
	<g id="sprocket">
		<g>
			<path style="fill:#8998AF;" d="M7.5,6.564c-0.548,0-0.992,0.419-0.992,0.937c0,0.517,0.443,0.935,0.992,0.935
				c0.547,0,0.991-0.418,0.991-0.935C8.491,6.983,8.048,6.564,7.5,6.564z M14.504,9.154L13.78,8.76
				c-0.263-0.144-0.395-0.444-0.361-0.742c0.02-0.17,0.03-0.343,0.03-0.517c0-0.175-0.011-0.348-0.03-0.518
				c-0.033-0.298,0.099-0.6,0.362-0.743l0.723-0.394c0.476-0.259,0.638-0.831,0.361-1.279l-0.991-1.621
				c-0.273-0.448-0.879-0.601-1.354-0.343l-0.738,0.402c-0.291,0.158-0.642,0.072-0.918-0.108s-0.568-0.339-0.876-0.475
				C9.703,2.298,9.483,2.039,9.483,1.728V0.948c0-0.518-0.442-0.936-0.992-0.936H6.509c-0.548,0-0.991,0.418-0.991,0.936v0.779
				c0,0.271-0.13,0.539-0.381,0.643C4.762,2.524,4.41,2.713,4.082,2.933C3.824,3.106,3.491,3.154,3.218,3.005L2.48,2.603
				C2.006,2.345,1.399,2.498,1.126,2.946L0.134,4.567c-0.273,0.448-0.111,1.02,0.363,1.279L1.221,6.24
				c0.263,0.144,0.394,0.445,0.36,0.743c-0.02,0.17-0.03,0.342-0.03,0.518c0,0.174,0.011,0.347,0.03,0.517
				c0.033,0.298-0.097,0.599-0.36,0.742L0.497,9.154c-0.474,0.258-0.636,0.83-0.363,1.278l0.992,1.621
				c0.273,0.448,0.88,0.602,1.354,0.344l0.738-0.403c0.291-0.159,0.642-0.072,0.918,0.109c0.276,0.181,0.568,0.339,0.876,0.474
				c0.285,0.124,0.505,0.384,0.505,0.694v0.78c0,0.518,0.443,0.936,0.991,0.936h1.982c0.55,0,0.992-0.418,0.992-0.936v-0.78
				c0-0.271,0.13-0.539,0.381-0.642c0.374-0.154,0.726-0.343,1.055-0.563c0.258-0.173,0.59-0.222,0.862-0.072l0.739,0.403
				c0.475,0.258,1.08,0.104,1.354-0.344l0.991-1.621C15.142,9.984,14.979,9.412,14.504,9.154z M11.467,7.5
				c0,0.086-0.004,0.171-0.012,0.256c-0.039,0.435,0.124,0.884,0.507,1.093c0.178,0.098,0.238,0.323,0.133,0.497l-0.604,0.988
				c-0.107,0.176-0.335,0.237-0.516,0.139c-0.363-0.197-0.809-0.178-1.151,0.053c-0.18,0.122-0.371,0.229-0.572,0.321
				c-0.406,0.186-0.761,0.528-0.761,0.976c0,0.197-0.159,0.356-0.356,0.356h-1.27c-0.197,0-0.356-0.159-0.356-0.356
				c0-0.407-0.263-0.766-0.639-0.923c-0.205-0.086-0.4-0.187-0.585-0.303c-0.382-0.24-0.863-0.34-1.259-0.124
				c-0.181,0.099-0.408,0.037-0.516-0.139L2.905,9.347C2.799,9.174,2.86,8.947,3.038,8.85c0.383-0.209,0.547-0.658,0.507-1.093
				C3.537,7.672,3.533,7.587,3.533,7.5s0.004-0.172,0.012-0.257c0.04-0.435-0.123-0.885-0.507-1.094
				C2.86,6.053,2.799,5.826,2.905,5.653L3.51,4.664c0.108-0.176,0.335-0.237,0.516-0.138c0.362,0.198,0.808,0.178,1.15-0.053
				c0.18-0.121,0.372-0.229,0.573-0.32c0.406-0.186,0.76-0.529,0.76-0.976c0-0.196,0.16-0.356,0.356-0.356h1.27
				c0.197,0,0.356,0.16,0.356,0.356c0,0.408,0.264,0.765,0.64,0.923c0.204,0.085,0.4,0.187,0.584,0.303
				c0.384,0.24,0.863,0.34,1.261,0.124c0.181-0.099,0.408-0.038,0.516,0.138l0.604,0.989C12.2,5.826,12.14,6.053,11.962,6.15
				c-0.383,0.209-0.546,0.659-0.507,1.094C11.463,7.328,11.467,7.414,11.467,7.5z"/>
		</g>
	</g>
</g>
<g id="Layer_1">
</g>
</svg>
