<?xml version="1.0" encoding="utf-8"?>
<!-- Generator: Adobe Illustrator 16.0.0, SVG Export Plug-In . SVG Version: 6.00 Build 0)  -->
<!DOCTYPE svg PUBLIC "-//W3C//DTD SVG 1.1//EN" "http://www.w3.org/Graphics/SVG/1.1/DTD/svg11.dtd">
<svg version="1.1" id="Layer_1" xmlns="http://www.w3.org/2000/svg" xmlns:xlink="http://www.w3.org/1999/xlink" x="0px" y="0px"
	 width="15px" height="15px" viewBox="0 0 15 15" enable-background="new 0 0 15 15" xml:space="preserve">
<g>
	<g>
		<path fill="#8998AF" d="M11.137,8.841c0.088,0.06,0.088,0.188,0,0.247l-0.883,0.605l-0.889,0.601
			c-0.078,0.054-0.18-0.006-0.184-0.096V8.965V7.731c0-0.091,0.105-0.145,0.184-0.097l0.889,0.605L11.137,8.841z"/>
		<path fill="#8998AF" d="M3.86,9.088c-0.083-0.06-0.083-0.188,0-0.247L4.748,8.24l0.887-0.605c0.08-0.048,0.18,0.005,0.18,0.097
			v1.233v1.233c0,0.09-0.105,0.149-0.18,0.096L4.748,9.693L3.86,9.088z"/>
		<g>
			<path fill="#8998AF" d="M9.621,9.275c0,0.069-0.08,0.129-0.18,0.129H5.391c-0.099,0-0.179-0.06-0.179-0.129V8.573
				c0-0.069,0.081-0.129,0.179-0.129h4.051c0.1,0,0.18,0.06,0.18,0.129V9.275z"/>
		</g>
	</g>
	<path fill="#8998AF" d="M10.072,0.172C9.963,0.059,9.814,0,9.658,0H1.359C1.225,0,1.118,0.107,1.118,0.241V14.75
		c0,0.134,0.107,0.246,0.241,0.246h12.284c0.129,0,0.24-0.112,0.24-0.246V4.22c0-0.156-0.063-0.306-0.172-0.413L10.072,0.172z
		 M3.053,13.179c-0.064,0-0.118-0.06-0.118-0.124V1.936c0-0.064,0.053-0.118,0.118-0.118h5.442c0.064,0,0.124,0.053,0.124,0.118
		v3.083c0,0.134,0.105,0.241,0.24,0.241h3.084c0.063,0,0.123,0.054,0.123,0.123v7.672c0,0.064-0.061,0.124-0.123,0.124H3.053z"/>
</g>
</svg>
