<?xml version="1.0" encoding="iso-8859-1"?>
<!-- Generator: Adobe Illustrator 16.0.0, SVG Export Plug-In . SVG Version: 6.00 Build 0)  -->
<!DOCTYPE svg PUBLIC "-//W3C//DTD SVG 1.1//EN" "http://www.w3.org/Graphics/SVG/1.1/DTD/svg11.dtd">
<svg version="1.1" xmlns="http://www.w3.org/2000/svg" xmlns:xlink="http://www.w3.org/1999/xlink" x="0px" y="0px" width="15px"
	 height="15px" viewBox="0 0 15 15" style="enable-background:new 0 0 15 15;" xml:space="preserve">
<g id="select-all">
	<path style="fill:#8998AF;" d="M2.75,2.115c0,0.351-0.284,0.635-0.635,0.635h-1.48C0.284,2.75,0,2.466,0,2.115v-1.48
		C0,0.284,0.284,0,0.635,0h1.48C2.466,0,2.75,0.284,2.75,0.635V2.115z"/>
	<path style="fill:#8998AF;" d="M2.75,14.365C2.75,14.716,2.466,15,2.115,15h-1.48C0.284,15,0,14.716,0,14.365v-1.48
		c0-0.351,0.284-0.635,0.635-0.635h1.48c0.351,0,0.635,0.284,0.635,0.635V14.365z"/>
	<path style="fill:#8998AF;" d="M15,14.365C15,14.716,14.716,15,14.365,15h-1.48c-0.351,0-0.635-0.284-0.635-0.635v-1.48
		c0-0.351,0.284-0.635,0.635-0.635h1.48c0.351,0,0.635,0.284,0.635,0.635V14.365z"/>
	<path style="fill:#8998AF;" d="M15,2.115c0,0.351-0.284,0.635-0.635,0.635h-1.48c-0.351,0-0.635-0.284-0.635-0.635v-1.48
		C12.25,0.284,12.534,0,12.885,0h1.48C14.716,0,15,0.284,15,0.635V2.115z"/>
	<g>
		<g>
			<g>
				
					<line style="fill:none;stroke:#8998AF;stroke-width:1.15;stroke-linecap:round;stroke-linejoin:round;" x1="1.375" y1="1.375" x2="1.375" y2="1.875"/>
				
					<line style="fill:none;stroke:#8998AF;stroke-width:1.15;stroke-linecap:round;stroke-linejoin:round;stroke-dasharray:1.0227,3.0682;" x1="1.375" y1="4.943" x2="1.375" y2="11.591"/>
				
					<line style="fill:none;stroke:#8998AF;stroke-width:1.15;stroke-linecap:round;stroke-linejoin:round;" x1="1.375" y1="13.125" x2="1.375" y2="13.625"/>
			</g>
		</g>
		<g>
			<g>
				
					<line style="fill:none;stroke:#8998AF;stroke-width:1.15;stroke-linecap:round;stroke-linejoin:round;" x1="13.625" y1="1.375" x2="13.625" y2="1.875"/>
				
					<line style="fill:none;stroke:#8998AF;stroke-width:1.15;stroke-linecap:round;stroke-linejoin:round;stroke-dasharray:1.0227,3.0682;" x1="13.625" y1="4.943" x2="13.625" y2="11.591"/>
				
					<line style="fill:none;stroke:#8998AF;stroke-width:1.15;stroke-linecap:round;stroke-linejoin:round;" x1="13.625" y1="13.125" x2="13.625" y2="13.625"/>
			</g>
		</g>
		<g>
			<g>
				
					<line style="fill:none;stroke:#8998AF;stroke-width:1.15;stroke-linecap:round;stroke-linejoin:round;" x1="1.375" y1="13.625" x2="1.875" y2="13.625"/>
				
					<line style="fill:none;stroke:#8998AF;stroke-width:1.15;stroke-linecap:round;stroke-linejoin:round;stroke-dasharray:1.0227,3.0682;" x1="4.943" y1="13.625" x2="11.591" y2="13.625"/>
				
					<line style="fill:none;stroke:#8998AF;stroke-width:1.15;stroke-linecap:round;stroke-linejoin:round;" x1="13.125" y1="13.625" x2="13.625" y2="13.625"/>
			</g>
		</g>
		<g>
			<g>
				
					<line style="fill:none;stroke:#8998AF;stroke-width:1.15;stroke-linecap:round;stroke-linejoin:round;" x1="1.375" y1="1.375" x2="1.875" y2="1.375"/>
				
					<line style="fill:none;stroke:#8998AF;stroke-width:1.15;stroke-linecap:round;stroke-linejoin:round;stroke-dasharray:1.0227,3.0682;" x1="4.943" y1="1.375" x2="11.591" y2="1.375"/>
				
					<line style="fill:none;stroke:#8998AF;stroke-width:1.15;stroke-linecap:round;stroke-linejoin:round;" x1="13.125" y1="1.375" x2="13.625" y2="1.375"/>
			</g>
		</g>
	</g>
	<g>
		
			<polyline style="fill:none;stroke:#8998AF;stroke-width:1.5;stroke-linecap:round;stroke-linejoin:round;stroke-miterlimit:10;" points="
			4.427,5.924 4.427,4.374 10.542,4.374 10.542,5.924 		"/>
		
			<line style="fill:none;stroke:#8998AF;stroke-width:1.5;stroke-linecap:round;stroke-linejoin:round;stroke-miterlimit:10;" x1="7.498" y1="4.374" x2="7.498" y2="10.626"/>
		
			<line style="fill:none;stroke:#8998AF;stroke-width:1.5;stroke-linecap:round;stroke-linejoin:round;stroke-miterlimit:10;" x1="5.867" y1="10.626" x2="9.129" y2="10.626"/>
	</g>
</g>
<g id="Layer_1">
</g>
</svg>
