<?xml version="1.0" encoding="utf-8"?>
<!-- Generator: Adobe Illustrator 16.0.0, SVG Export Plug-In . SVG Version: 6.00 Build 0)  -->
<!DOCTYPE svg PUBLIC "-//W3C//DTD SVG 1.1//EN" "http://www.w3.org/Graphics/SVG/1.1/DTD/svg11.dtd">
<svg version="1.1" id="Layer_1" xmlns="http://www.w3.org/2000/svg" xmlns:xlink="http://www.w3.org/1999/xlink" x="0px" y="0px"
	 width="15px" height="15px" viewBox="0 0 15 15" enable-background="new 0 0 15 15" xml:space="preserve">
<g>
	<g>
		<g>
			<g>
				<path fill="#8998AF" d="M6.138,12.273C2.755,12.273,0,9.521,0,6.138C0,2.755,2.755,0,6.138,0c3.384,0,6.133,2.755,6.133,6.138
					C12.271,9.521,9.521,12.273,6.138,12.273z M6.138,2.036c-2.261,0-4.102,1.84-4.102,4.102c0,2.259,1.84,4.099,4.102,4.099
					c2.259,0,4.099-1.84,4.099-4.099C10.236,3.876,8.396,2.036,6.138,2.036z"/>
			</g>
			<g>
				<g>
					<path fill="#8998AF" d="M14.147,14.819c-0.212,0.212-0.557,0.212-0.769,0l-4.126-4.127c-0.212-0.212-0.212-0.557,0-0.769
						l0.668-0.668c0.212-0.212,0.557-0.212,0.77,0l4.125,4.123c0.213,0.212,0.213,0.557,0,0.769L14.147,14.819z"/>
				</g>
			</g>
		</g>
		<g>
			<path fill="#8998AF" d="M8.192,6.546c0,0.148-0.122,0.27-0.27,0.27H4.351c-0.149,0-0.271-0.122-0.271-0.27V5.73
				c0-0.149,0.122-0.271,0.271-0.271h3.571c0.148,0,0.27,0.122,0.27,0.271V6.546z"/>
		</g>
	</g>
</g>
</svg>
